<svg width="118" height="120" viewBox="0 0 118 120" fill="none" xmlns="http://www.w3.org/2000/svg">
<path d="M117.202 61.1226C117.202 56.2063 116.803 52.6186 115.94 48.8982H59.8V71.0881H92.7528C92.0887 76.6026 88.5011 84.9073 80.5284 90.4878L80.4166 91.2307L98.167 104.982L99.3968 105.104C110.691 94.6736 117.202 79.3264 117.202 61.1226Z" fill="#4285F4"/>
<path d="M59.7999 119.588C75.9441 119.588 89.4972 114.272 99.3967 105.104L80.5283 90.4877C75.4792 94.0089 68.7024 96.4671 59.7999 96.4671C43.9879 96.4671 30.5676 86.0367 25.7836 71.6198L25.0824 71.6793L6.62528 85.9634L6.38391 86.6344C16.2166 106.167 36.4137 119.588 59.7999 119.588Z" fill="#34A853"/>
<path d="M25.7836 71.6198C24.5213 67.8994 23.7908 63.9128 23.7908 59.7939C23.7908 55.6745 24.5213 51.6884 25.7172 47.9679L25.6838 47.1756L6.99536 32.662L6.38391 32.9528C2.33139 41.0583 0.00604248 50.1605 0.00604248 59.7939C0.00604248 69.4273 2.33139 78.529 6.38391 86.6345L25.7836 71.6198Z" fill="#FBBC05"/>
<path d="M59.7999 23.1202C71.0277 23.1202 78.6015 27.9701 82.9201 32.0231L99.7952 15.5464C89.4312 5.91298 75.9441 0 59.7999 0C36.4137 0 16.2166 13.4203 6.38391 32.9528L25.7172 47.968C30.5676 33.551 43.9879 23.1202 59.7999 23.1202Z" fill="#EB4335"/>
</svg>
