<svg width="1582" height="920" viewBox="0 0 1582 920" fill="none" xmlns="http://www.w3.org/2000/svg">
<g clip-path="url(#clip0_737_51)">
<path d="M112.27 638.72C127.89 638.72 142.52 641.69 156.16 647.64C169.8 653.59 181.69 661.63 191.83 671.77C201.97 681.91 210.02 693.86 215.96 707.62C221.91 721.38 224.88 735.95 224.88 751.34V842.28C224.88 848.35 222.78 853.47 218.58 857.67C214.38 861.87 209.25 863.97 203.19 863.97C197.13 863.97 191.94 861.87 187.63 857.67C183.31 853.47 181.16 848.35 181.16 842.28V800.31H112.26V799.96C111.56 800.2 110.28 800.31 108.41 800.31C100.72 800.31 93.37 801.48 86.38 803.81C79.38 806.14 73.03 809.41 67.32 813.6C61.6 817.8 56.65 822.81 52.46 828.64C48.26 834.47 45.12 840.88 43.02 847.88C42.79 848.12 42.67 848.35 42.67 848.58C42.67 848.81 42.55 849.05 42.32 849.28C40.92 853.71 38.35 857.27 34.63 859.95C30.9 862.63 26.59 863.97 21.69 863.97C15.62 863.97 10.5 861.87 6.3 857.67C2.1 853.47 0 848.35 0 842.28V751.34C0 737.59 2.33 724.64 7 712.52C12.6 697.6 20.99 684.31 32.18 672.65C42.67 662.16 54.74 653.88 68.38 647.82C82.02 641.76 96.65 638.73 112.27 638.73V638.72ZM181.17 756.59V751.34C181.17 739.22 178.25 728.03 172.43 717.76C172.43 717.53 172.37 717.36 172.26 717.24C172.14 717.13 172.09 716.95 172.09 716.72C171.16 715.32 170.22 713.92 169.29 712.52C168.36 711.12 167.42 709.84 166.49 708.67C160.19 700.51 152.38 694.1 143.06 689.43C133.73 684.77 123.47 682.43 112.28 682.43C101.09 682.43 90.77 684.94 81.33 689.95C71.89 694.97 64.02 701.55 57.72 709.71C53.29 715.54 49.85 721.95 47.4 728.95C44.95 735.95 43.73 743.41 43.73 751.33V777.21C52.82 770.69 62.85 765.61 73.81 762C84.77 758.39 96.31 756.58 108.44 756.58H181.19L181.17 756.59Z" fill="black"/>
<path d="M381.05 645.54C385.13 649.62 387.17 654.58 387.17 660.4C387.17 666.22 385.01 671.65 380.7 675.96C376.38 680.28 371.2 682.43 365.14 682.43H363.39C354.3 682.9 345.73 685 337.68 688.73C329.64 692.46 322.64 697.42 316.7 703.59C310.75 709.77 306.09 716.94 302.71 725.1C299.33 733.27 297.64 742.01 297.64 751.33V842.27C297.64 848.34 295.48 853.46 291.17 857.66C286.85 861.86 281.67 863.96 275.61 863.96C269.55 863.96 264.42 861.86 260.22 857.66C256.02 853.46 253.92 848.34 253.92 842.27V751.33C253.92 735.94 256.77 721.55 262.49 708.14C268.2 694.73 275.96 682.96 285.75 672.81C295.54 662.67 307.08 654.57 320.38 648.5C333.67 642.44 347.89 639.18 363.05 638.71H366.2C372.03 639.18 376.98 641.45 381.06 645.53L381.05 645.54Z" fill="black"/>
<path d="M516.23 638.72C531.85 638.72 546.48 641.69 560.12 647.64C573.76 653.59 585.65 661.63 595.79 671.77C605.93 681.91 613.98 693.86 619.92 707.62C625.87 721.38 628.84 735.95 628.84 751.34V842.28C628.84 848.35 626.74 853.47 622.54 857.67C618.34 861.87 613.21 863.97 607.15 863.97C601.09 863.97 595.9 861.87 591.59 857.67C587.27 853.47 585.12 848.35 585.12 842.28V800.31H516.22V799.96C515.52 800.2 514.24 800.31 512.37 800.31C504.68 800.31 497.33 801.48 490.34 803.81C483.34 806.14 476.99 809.41 471.28 813.6C465.56 817.8 460.61 822.81 456.42 828.64C452.22 834.47 449.08 840.88 446.98 847.88C446.75 848.12 446.63 848.35 446.63 848.58C446.63 848.81 446.51 849.05 446.28 849.28C444.88 853.71 442.31 857.27 438.59 859.95C434.86 862.63 430.55 863.97 425.65 863.97C419.58 863.97 414.46 861.87 410.26 857.67C406.06 853.47 403.96 848.35 403.96 842.28V751.34C403.96 737.59 406.29 724.64 410.96 712.52C416.56 697.6 424.95 684.31 436.14 672.65C446.63 662.16 458.7 653.88 472.34 647.82C485.98 641.76 500.61 638.73 516.23 638.73V638.72ZM585.13 756.59V751.34C585.13 739.22 582.21 728.03 576.39 717.76C576.39 717.53 576.33 717.36 576.22 717.24C576.1 717.13 576.05 716.95 576.05 716.72C575.12 715.32 574.18 713.92 573.25 712.52C572.32 711.12 571.38 709.84 570.45 708.67C564.15 700.51 556.34 694.1 547.02 689.43C537.69 684.77 527.43 682.43 516.24 682.43C505.05 682.43 494.73 684.94 485.29 689.95C475.85 694.97 467.98 701.55 461.68 709.71C457.25 715.54 453.81 721.95 451.36 728.95C448.91 735.95 447.69 743.41 447.69 751.33V777.21C456.78 770.69 466.81 765.61 477.77 762C488.73 758.39 500.27 756.58 512.4 756.58H585.15L585.13 756.59Z" fill="black"/>
<path d="M778.77 864.06C778.65 864.06 778.53 864.06 778.4 864.06C748.29 863.53 720.03 851.64 698.82 830.58C677.45 809.37 665.68 781.31 665.68 751.56C665.68 721.81 677.45 693.75 698.82 672.54C720.03 651.49 748.29 639.6 778.39 639.06C784.19 638.97 789.86 641.23 793.98 645.28C798.09 649.32 800.45 654.95 800.45 660.71C800.45 672.43 790.89 682.14 779.14 682.34C740.5 683.03 709.05 714.08 709.05 751.55C709.05 789.02 740.5 820.07 779.15 820.76C790.9 820.97 800.46 830.67 800.46 842.39C800.46 848.15 798.1 853.78 793.99 857.82C789.96 861.78 784.43 864.04 778.78 864.04L778.77 864.06Z" fill="black"/>
<path d="M931.73 640.82C949.68 637.79 967.34 639.07 984.72 644.67C1002.09 650.27 1017.19 659.59 1030.01 672.65C1040.5 683.14 1048.6 695.33 1054.32 709.2C1060.03 723.08 1062.77 737.48 1062.54 752.39C1062.54 764.28 1060.62 775.88 1056.77 787.19C1052.92 798.5 1047.5 808.93 1040.51 818.49C1029.08 833.88 1014.63 845.6 997.14 853.64C979.65 861.68 961.47 865.12 942.58 863.96C932.79 863.26 923.22 861.28 913.9 858.01C904.57 854.75 895.89 850.44 887.84 845.07C879.8 839.71 872.51 833.41 865.98 826.18C859.45 818.96 853.97 810.91 849.54 802.05C845.34 793.43 842.25 784.45 840.27 775.12C838.29 765.8 837.53 756.41 838 746.96C838.46 737.52 840.04 728.19 842.72 718.98C845.4 709.77 849.3 701.09 854.44 692.92C856.07 689.89 858.05 686.86 860.39 683.83H860.74C869.36 672.17 879.86 662.73 892.22 655.5C904.58 648.28 917.75 643.38 931.74 640.81L931.73 640.82ZM1007.28 790.86C1012.18 783.64 1015.61 775.82 1017.6 767.43C1019.58 759.04 1019.99 750.53 1018.82 741.9C1017.42 733.28 1014.85 725.7 1011.13 719.17C1006.46 710.78 1000.4 703.55 992.94 697.49C985.48 691.43 977.08 687.23 967.76 684.9C958.67 682.34 949.34 681.75 939.78 683.15C930.22 684.55 921.36 687.82 913.2 692.94C902.71 699.71 894.54 708.68 888.72 719.87C882.89 731.06 880.33 742.95 881.03 755.54C881.49 765.33 883.94 774.43 888.37 782.82C889.53 784.92 890.64 787.08 891.69 789.29C892.74 791.51 893.96 793.66 895.36 795.76C893.26 792.26 891.28 788.65 889.41 784.92C893.14 791.69 897.92 797.69 903.75 802.93C909.58 808.18 916.11 812.43 923.34 815.7C930.8 818.97 938.61 820.77 946.77 821.12C954.93 821.47 962.86 820.37 970.55 817.8C978.01 815.47 984.89 811.97 991.19 807.31C997.49 802.65 1002.85 797.17 1007.28 790.87V790.86Z" fill="black"/>
<path d="M1296.52 863.96C1290.45 863.96 1285.38 861.86 1281.31 857.66C1277.23 853.46 1275.19 848.34 1275.19 842.27V712.86L1247.28 740.84C1241.69 746.44 1235.36 750.75 1228.26 753.78C1221.17 756.81 1213.66 758.33 1205.76 758.33C1197.86 758.33 1190.29 756.82 1183.08 753.78C1175.87 750.75 1169.59 746.43 1164.24 740.84L1135.98 712.51V842.27C1135.98 848.34 1133.86 853.46 1129.63 857.66C1125.4 861.86 1120.23 863.96 1114.12 863.96C1108.01 863.96 1102.83 861.86 1098.6 857.66C1094.37 853.46 1092.26 848.34 1092.26 842.27V660.75C1092.26 654.69 1094.36 649.56 1098.56 645.36C1102.76 641.16 1107.88 639.06 1113.95 639.06C1118.38 639.06 1122.46 640.34 1126.19 642.91V642.56L1128.99 645.01L1191.25 707.62C1195.45 711.35 1200.22 713.22 1205.59 713.22C1210.96 713.22 1215.38 711.36 1219.58 707.62L1283.93 642.92H1284.28C1288.01 640.36 1292.09 639.07 1296.52 639.07C1302.58 639.07 1307.71 641.17 1311.91 645.37C1316.11 649.57 1318.21 654.7 1318.21 660.76V842.28C1318.21 848.35 1316.11 853.47 1311.91 857.67C1307.71 861.87 1302.58 863.97 1296.52 863.97V863.96Z" fill="black"/>
<path d="M1532.18 658.66C1540.12 664.03 1547.18 670.26 1553.37 677.37C1559.56 684.49 1564.75 692.18 1568.96 700.45C1573.16 708.73 1576.38 717.47 1578.59 726.68C1580.81 735.89 1581.8 745.16 1581.57 754.49C1581.1 766.38 1578.89 777.98 1574.92 789.29C1570.95 800.6 1565.36 811.04 1558.13 820.59C1549.04 832.48 1537.96 842.1 1524.9 849.44C1511.84 856.78 1497.97 861.39 1483.28 863.26C1468.36 865.12 1453.73 864.01 1439.39 859.94C1425.05 855.86 1411.93 849.39 1400.04 840.53V840.18V897.89C1400.04 903.95 1397.92 909.08 1393.69 913.28C1389.46 917.48 1384.29 919.57 1378.18 919.57C1372.07 919.57 1366.89 917.47 1362.67 913.28C1358.44 909.08 1356.33 903.95 1356.33 897.89V749.94C1356.33 748.08 1356.38 746.27 1356.5 744.52C1356.61 742.77 1356.79 740.97 1357.02 739.1C1357.95 729.54 1360.23 720.27 1363.85 711.3C1367.47 702.33 1372.03 693.99 1377.51 686.29C1382.99 678.59 1389.42 671.66 1396.78 665.48C1404.14 659.31 1412.13 654.11 1420.78 649.92C1438.76 641.53 1457.68 638.09 1477.53 639.6C1497.38 641.12 1515.6 647.47 1532.18 658.66ZM1537.85 756.24C1539.01 739.92 1534.94 725.23 1525.62 712.17C1520.96 705.41 1515.31 699.7 1508.68 695.03C1502.05 690.37 1494.89 686.99 1487.2 684.89C1471.36 680.46 1456.11 681.51 1441.44 688.04C1443.31 687.11 1445.17 686.24 1447.04 685.42C1448.91 684.61 1450.78 683.85 1452.65 683.15C1450.32 684.08 1448.04 685.02 1445.83 685.95C1443.61 686.88 1441.46 687.93 1439.36 689.1C1430.73 692.83 1423.27 698.43 1416.98 705.89C1408.82 715.45 1403.51 726.41 1401.07 738.77C1398.62 751.13 1399.5 763.25 1403.69 775.15C1406.95 784.01 1411.85 791.94 1418.38 798.93C1424.9 805.92 1432.6 811.41 1441.46 815.37C1450.31 819.1 1459.52 820.97 1469.06 820.97C1478.6 820.97 1487.8 818.99 1496.65 815.02C1500.37 813.16 1503.92 811.17 1507.3 809.07C1510.68 806.97 1513.88 804.52 1516.91 801.73C1522.96 795.67 1527.85 788.73 1531.57 780.92C1535.29 773.11 1537.38 764.89 1537.85 756.26V756.24Z" fill="black"/>
<path d="M689 751.86C689 703.14 729.16 663.41 778.88 662.51C779.83 662.49 780.59 661.75 780.59 660.83C780.59 659.89 779.8 659.12 778.84 659.14C727.24 660.05 685.55 701.3 685.55 751.86C685.55 802.42 727.24 843.66 778.84 844.58C779.8 844.6 780.59 843.83 780.59 842.89C780.59 841.97 779.83 841.23 778.88 841.21C729.16 840.32 689 800.58 689 751.86Z" fill="#4361EE"/>
<path d="M1559.47 751.86C1559.47 703.14 1519.31 663.41 1469.59 662.51C1468.64 662.49 1467.88 661.75 1467.88 660.83C1467.88 659.89 1468.67 659.12 1469.63 659.14C1521.23 660.05 1562.92 701.3 1562.92 751.86C1562.92 802.42 1521.23 843.66 1469.63 844.58C1468.67 844.6 1467.88 843.83 1467.88 842.89C1467.88 841.97 1468.64 841.23 1469.59 841.21C1519.31 840.32 1559.47 800.58 1559.47 751.86Z" fill="#7209B7"/>
<path d="M950.21 662.6C998.93 662.6 1038.66 702.76 1039.56 752.48C1039.58 753.43 1040.32 754.19 1041.24 754.19C1042.18 754.19 1042.95 753.4 1042.93 752.44C1042.02 700.84 1000.77 659.15 950.21 659.15C899.65 659.15 858.41 700.84 857.49 752.44C857.47 753.4 858.24 754.19 859.18 754.19C860.1 754.19 860.84 753.43 860.86 752.48C861.75 702.76 901.49 662.6 950.21 662.6Z" fill="#F72585"/>
<path d="M780.59 774.73C793.221 774.73 803.46 764.491 803.46 751.86C803.46 739.229 793.221 728.99 780.59 728.99C767.959 728.99 757.72 739.229 757.72 751.86C757.72 764.491 767.959 774.73 780.59 774.73Z" fill="#4361EE"/>
<path d="M950.21 774.73C962.841 774.73 973.08 764.491 973.08 751.86C973.08 739.229 962.841 728.99 950.21 728.99C937.579 728.99 927.34 739.229 927.34 751.86C927.34 764.491 937.579 774.73 950.21 774.73Z" fill="#F72585"/>
<path d="M1467.88 774.73C1480.51 774.73 1490.75 764.491 1490.75 751.86C1490.75 739.229 1480.51 728.99 1467.88 728.99C1455.25 728.99 1445.01 739.229 1445.01 751.86C1445.01 764.491 1455.25 774.73 1467.88 774.73Z" fill="#7209B7"/>
<path d="M882 453.08L670.73 281.24L882 109.39L887.05 115.6L683.41 281.24L887.05 446.88L882 453.08Z" fill="black"/>
<path d="M655.77 350.45C617.12 349.76 585.67 318.71 585.67 281.24C585.67 243.77 617.12 212.72 655.76 212.03C667.51 211.82 677.07 202.12 677.07 190.4C677.07 184.64 674.71 179.01 670.6 174.97C666.48 170.92 660.81 168.66 655.01 168.75C624.91 169.28 596.65 181.17 575.44 202.23C554.07 223.44 542.3 251.5 542.3 281.25C542.3 311 554.07 339.06 575.44 360.27C596.65 381.32 624.91 393.21 655.02 393.75C655.14 393.75 655.26 393.75 655.39 393.75C661.04 393.75 666.57 391.49 670.6 387.53C674.71 383.49 677.07 377.86 677.07 372.1C677.07 360.38 667.51 350.67 655.76 350.47L655.77 350.45Z" fill="#4361EE"/>
<path d="M698.205 289.997C703.038 278.327 697.497 264.949 685.827 260.116C674.158 255.282 660.78 260.823 655.946 272.493C651.113 284.162 656.654 297.54 668.323 302.374C679.993 307.207 693.371 301.666 698.205 289.997Z" fill="#4361EE"/>
<path d="M905.83 181.71C944.48 181.02 975.93 149.97 975.93 112.5C975.93 75.0299 944.48 43.9799 905.84 43.2899C894.09 43.0799 884.53 33.3799 884.53 21.6599C884.53 15.8999 886.89 10.2699 891 6.22991C895.12 2.17991 900.79 -0.0800867 906.59 0.00991327C936.69 0.539913 964.95 12.4299 986.16 33.4899C1007.53 54.6999 1019.3 82.7599 1019.3 112.51C1019.3 142.26 1007.53 170.32 986.16 191.53C964.95 212.58 936.69 224.47 906.58 225.01C906.46 225.01 906.34 225.01 906.21 225.01C900.56 225.01 895.03 222.75 891 218.79C886.89 214.75 884.53 209.12 884.53 203.36C884.53 191.64 894.09 181.93 905.84 181.73L905.83 181.71Z" fill="#F72585"/>
<path d="M893.283 133.631C904.952 128.797 910.494 115.419 905.66 103.749C900.827 92.0801 887.448 86.5387 875.779 91.3723C864.11 96.2059 858.568 109.584 863.402 121.253C868.236 132.923 881.614 138.464 893.283 133.631Z" fill="#F72585"/>
<path d="M905.83 519.19C944.48 518.5 975.93 487.45 975.93 449.98C975.93 412.51 944.48 381.46 905.84 380.77C894.09 380.56 884.53 370.86 884.53 359.14C884.53 353.38 886.89 347.75 891 343.71C895.12 339.66 900.79 337.4 906.59 337.49C936.69 338.02 964.95 349.91 986.16 370.97C1007.53 392.18 1019.3 420.24 1019.3 449.99C1019.3 479.74 1007.53 507.8 986.16 529.01C964.95 550.06 936.69 561.95 906.58 562.49C906.46 562.49 906.34 562.49 906.21 562.49C900.56 562.49 895.03 560.23 891 556.27C886.89 552.23 884.53 546.6 884.53 540.84C884.53 529.12 894.09 519.41 905.84 519.21L905.83 519.19Z" fill="#7209B7"/>
<path d="M893.281 471.111C904.95 466.278 910.492 452.899 905.658 441.23C900.825 429.561 887.446 424.019 875.777 428.853C864.108 433.687 858.566 447.065 863.4 458.734C868.234 470.403 881.612 475.945 893.281 471.111Z" fill="#7209B7"/>
</g>
<defs>
<clipPath id="clip0_737_51">
<rect width="1581.6" height="919.57" fill="white"/>
</clipPath>
</defs>
</svg>
